<?xml version="1.0" standalone="no"?>
<!DOCTYPE svg PUBLIC "-//W3C//DTD SVG 20010904//EN"
 "http://www.w3.org/TR/2001/REC-SVG-20010904/DTD/svg10.dtd">
<svg version="1.0" xmlns="http://www.w3.org/2000/svg"
 width="260.000000pt" height="260.000000pt" viewBox="0 0 260.000000 260.000000"
 preserveAspectRatio="xMidYMid meet">
<metadata>
Created by potrace 1.11, written by Peter Selinger 2001-2013
</metadata>
<g transform="translate(0.000000,260.000000) scale(0.100000,-0.100000)"
fill="#000000" stroke="none">
<path d="M0 1300 l0 -1300 1300 0 1300 0 0 1300 0 1300 -1300 0 -1300 0 0
-1300z m2580 0 l0 -1280 -1280 0 -1280 0 0 1280 0 1280 1280 0 1280 0 0 -1280z"/>
<path d="M888 2075 c1 -228 6 -415 11 -415 5 0 58 -30 117 -67 133 -81 488
-296 802 -486 l233 -141 -49 -30 c-27 -17 -319 -197 -650 -401 -669 -412 -618
-370 -519 -423 l43 -23 110 67 c60 36 114 71 119 77 11 11 -7 1 -144 -81 l-85
-51 -35 19 c-85 44 -132 8 569 440 353 217 642 399 643 404 1 5 -258 167 -575
360 l-578 350 0 398 0 398 133 -82 c72 -44 148 -91 167 -103 60 -37 68 -40 50
-23 -8 8 -85 57 -170 108 -85 52 -164 99 -175 106 -20 13 -20 11 -17 -401z"/>
<path d="M636 2327 l-99 -62 7 -80 c3 -44 6 -225 6 -402 l0 -323 421 -251
c372 -222 418 -252 402 -264 -10 -7 -193 -121 -408 -255 -506 -314 -538 -334
-537 -344 0 -5 40 -30 89 -57 l88 -47 604 363 c332 201 608 368 613 373 4 4
-177 116 -404 248 -226 131 -466 271 -532 309 l-121 70 -3 393 c-2 304 -5 392
-15 391 -6 -1 -56 -29 -111 -62z"/>
<path d="M1270 2247 c0 -2 205 -129 455 -282 l455 -279 0 -402 0 -401 -522
-313 c-288 -172 -527 -317 -533 -323 -15 -15 53 24 578 338 l486 290 1 407 0
408 -57 35 c-32 20 -132 81 -223 137 -195 119 -290 177 -465 285 -138 85 -175
106 -175 100z"/>
</g>
</svg>
